<svg xmlns="http://www.w3.org/2000/svg" viewBox="0 0 1280 720" font-family="'Segoe UI', system-ui, sans-serif">
  <defs>
    <linearGradient id="cbg" x1="0" y1="0" x2="1" y2="1"><stop offset="0" stop-color="#0a0e1a"/><stop offset="0.55" stop-color="#0c1226"/><stop offset="1" stop-color="#0e1a2e"/></linearGradient>
    <radialGradient id="glow" cx="0.5" cy="0.5" r="0.5"><stop offset="0" stop-color="#22d3ee" stop-opacity="0.38"/><stop offset="1" stop-color="#22d3ee" stop-opacity="0"/></radialGradient>
    <linearGradient id="hub" x1="0" y1="0" x2="1" y2="1"><stop offset="0" stop-color="#312e81"/><stop offset="1" stop-color="#0e7490"/></linearGradient>
    <marker id="av" markerWidth="9" markerHeight="9" refX="7" refY="3" orient="auto" markerUnits="strokeWidth"><path d="M0,0 L7,3 L0,6 Z" fill="#64748b"/></marker>
  </defs>
  <rect width="1280" height="720" fill="url(#cbg)"/>
  <circle cx="965" cy="345" r="205" fill="url(#glow)"/>
  
  <text x="72" y="258" fill="#22d3ee" font-size="17" font-weight="600" letter-spacing="4">WAREHOUSE OPERATIONS</text>
  <text x="70" y="332" fill="#f8fafc" font-size="56" font-weight="800">Inventory</text>
  <text x="70" y="398" fill="#f8fafc" font-size="56" font-weight="800">&amp; Warehouse</text>
  <text x="72" y="446" fill="#94a3b8" font-size="20">Receipt to delivery: holds, counts, revaluation</text>
  <rect x="72" y="486" width="89" height="34" rx="17" fill="#141a2e" stroke="#2a3350"/><text x="116.5" y="508" fill="#cbd5e1" font-size="15" font-weight="500" text-anchor="middle">Odoo 19</text><rect x="173" y="486" width="80" height="34" rx="17" fill="#141a2e" stroke="#2a3350"/><text x="213" y="508" fill="#cbd5e1" font-size="15" font-weight="500" text-anchor="middle">Python</text><rect x="265" y="486" width="114" height="34" rx="17" fill="#141a2e" stroke="#2a3350"/><text x="322" y="508" fill="#cbd5e1" font-size="15" font-weight="500" text-anchor="middle">PostgreSQL</text><rect x="391" y="486" width="89" height="34" rx="17" fill="#141a2e" stroke="#2a3350"/><text x="435.5" y="508" fill="#cbd5e1" font-size="15" font-weight="500" text-anchor="middle">XML-RPC</text>
  <text x="965" y="150" fill="#22d3ee" font-size="14" font-weight="600" letter-spacing="2" text-anchor="middle">WAREHOUSE</text><rect x="862" y="212" width="206" height="232" rx="12" fill="#141a2e" stroke="#2a3350" stroke-width="1.6"/><line x1="862" y1="290" x2="1068" y2="290" stroke="#2a3350"/><line x1="862" y1="368" x2="1068" y2="368" stroke="#2a3350"/><rect x="892" y="242" width="44" height="34" rx="5" fill="#22d3ee" stroke="#334066" stroke-width="1.4"/><rect x="962" y="242" width="44" height="34" rx="5" fill="#243049" stroke="#334066" stroke-width="1.4"/><rect x="892" y="320" width="44" height="34" rx="5" fill="#243049" stroke="#334066" stroke-width="1.4"/><rect x="978" y="320" width="44" height="34" rx="5" fill="#22d3ee" stroke="#334066" stroke-width="1.4"/><rect x="932" y="398" width="44" height="34" rx="5" fill="#243049" stroke="#334066" stroke-width="1.4"/><line x1="772" y1="280" x2="858" y2="280" stroke="#475569" stroke-width="2" marker-end="url(#av)"/><text x="772" y="266" fill="#94a3b8" font-size="14">IN · receipt</text><line x1="1072" y1="380" x2="1158" y2="380" stroke="#475569" stroke-width="2" marker-end="url(#av)"/><text x="1072" y="366" fill="#94a3b8" font-size="14">OUT · delivery</text>
</svg>