<svg width="400" height="400" viewBox="0 0 400 400" xmlns="http://www.w3.org/2000/svg">
  <defs>
    <radialGradient id="rg-s" cx="85%" cy="12%" r="75%">
      <stop offset="0%" stop-color="#7F77DD" stop-opacity="0.22"/>
      <stop offset="100%" stop-color="#7F77DD" stop-opacity="0"/>
    </radialGradient>
  </defs>

  <rect width="400" height="400" fill="url(#rg-s)"/>

  <!-- Circuit traces horizontal -->
  <g stroke="#7F77DD" fill="none" stroke-linecap="round">
    <line x1="30"  y1="50"  x2="155" y2="50"  stroke-opacity="0.17" stroke-width="1"/>
    <line x1="185" y1="50"  x2="285" y2="50"  stroke-opacity="0.12" stroke-width="1"/>
    <line x1="315" y1="50"  x2="400" y2="50"  stroke-opacity="0.09" stroke-width="1"/>

    <line x1="0"   y1="105" x2="88"  y2="105" stroke-opacity="0.14" stroke-width="1"/>
    <line x1="118" y1="105" x2="238" y2="105" stroke-opacity="0.2"  stroke-width="1"/>
    <line x1="268" y1="105" x2="370" y2="105" stroke-opacity="0.15" stroke-width="1"/>

    <line x1="40"  y1="160" x2="175" y2="160" stroke-opacity="0.22" stroke-width="1"/>
    <line x1="205" y1="160" x2="310" y2="160" stroke-opacity="0.16" stroke-width="1"/>
    <line x1="340" y1="160" x2="400" y2="160" stroke-opacity="0.1"  stroke-width="1"/>

    <line x1="0"   y1="215" x2="125" y2="215" stroke-opacity="0.14" stroke-width="1"/>
    <line x1="155" y1="215" x2="268" y2="215" stroke-opacity="0.12" stroke-width="1"/>
    <line x1="298" y1="215" x2="400" y2="215" stroke-opacity="0.1"  stroke-width="1"/>

    <line x1="55"  y1="270" x2="190" y2="270" stroke-opacity="0.12" stroke-width="1"/>
    <line x1="220" y1="270" x2="340" y2="270" stroke-opacity="0.1"  stroke-width="1"/>

    <line x1="20"  y1="325" x2="155" y2="325" stroke-opacity="0.1"  stroke-width="1"/>
    <line x1="185" y1="325" x2="310" y2="325" stroke-opacity="0.08" stroke-width="1"/>

    <line x1="70"  y1="375" x2="210" y2="375" stroke-opacity="0.08" stroke-width="1"/>
    <line x1="240" y1="375" x2="370" y2="375" stroke-opacity="0.06" stroke-width="1"/>

    <!-- Vertical traces -->
    <line x1="80"  y1="50"  x2="80"  y2="105" stroke-opacity="0.16" stroke-width="1"/>
    <line x1="155" y1="105" x2="155" y2="50"  stroke-opacity="0.13" stroke-width="1"/>
    <line x1="238" y1="50"  x2="238" y2="105" stroke-opacity="0.11" stroke-width="1"/>
    <line x1="315" y1="50"  x2="315" y2="105" stroke-opacity="0.1"  stroke-width="1"/>

    <line x1="58"  y1="105" x2="58"  y2="160" stroke-opacity="0.2"  stroke-width="1"/>
    <line x1="175" y1="160" x2="175" y2="105" stroke-opacity="0.18" stroke-width="1"/>
    <line x1="268" y1="105" x2="268" y2="160" stroke-opacity="0.15" stroke-width="1"/>
    <line x1="358" y1="105" x2="358" y2="160" stroke-opacity="0.12" stroke-width="1"/>

    <line x1="118" y1="160" x2="118" y2="215" stroke-opacity="0.2"  stroke-width="1"/>
    <line x1="205" y1="215" x2="205" y2="160" stroke-opacity="0.16" stroke-width="1"/>
    <line x1="298" y1="160" x2="298" y2="215" stroke-opacity="0.13" stroke-width="1"/>

    <line x1="78"  y1="215" x2="78"  y2="270" stroke-opacity="0.15" stroke-width="1"/>
    <line x1="190" y1="270" x2="190" y2="215" stroke-opacity="0.12" stroke-width="1"/>
    <line x1="298" y1="215" x2="298" y2="270" stroke-opacity="0.1"  stroke-width="1"/>

    <line x1="118" y1="270" x2="118" y2="325" stroke-opacity="0.13" stroke-width="1"/>
    <line x1="220" y1="325" x2="220" y2="270" stroke-opacity="0.1"  stroke-width="1"/>
    <line x1="330" y1="270" x2="330" y2="325" stroke-opacity="0.09" stroke-width="1"/>

    <line x1="75"  y1="325" x2="75"  y2="375" stroke-opacity="0.1"  stroke-width="1"/>
    <line x1="210" y1="375" x2="210" y2="325" stroke-opacity="0.08" stroke-width="1"/>

    <!-- L-bends -->
    <path d="M340 160 L340 138 L395 138" stroke-opacity="0.11" stroke-width="1"/>
    <path d="M40  215 L40  238 L0   238" stroke-opacity="0.1"  stroke-width="1"/>
    <path d="M155 50  L155 28  L235 28"  stroke-opacity="0.09" stroke-width="1"/>
    <path d="M268 105 L268 78  L372 78"  stroke-opacity="0.08" stroke-width="1"/>
    <path d="M78  270 L78  295 L0   295" stroke-opacity="0.08" stroke-width="1"/>
    <path d="M330 325 L330 348 L400 348" stroke-opacity="0.07" stroke-width="1"/>
  </g>

  <!-- Circuit nodes -->
  <g fill="#7F77DD">
    <!-- Large highlighted -->
    <circle cx="175" cy="160" r="5.5" fill-opacity="0.42"/>
    <circle cx="118" cy="105" r="5"   fill-opacity="0.37"/>
    <circle cx="268" cy="160" r="5"   fill-opacity="0.3"/>
    <circle cx="205" cy="215" r="5"   fill-opacity="0.28"/>
    <circle cx="190" cy="270" r="4.5" fill-opacity="0.25"/>

    <!-- Medium -->
    <circle cx="80"  cy="105" r="3.5" fill-opacity="0.3"/>
    <circle cx="58"  cy="160" r="3.5" fill-opacity="0.25"/>
    <circle cx="298" cy="160" r="3.5" fill-opacity="0.22"/>
    <circle cx="155" cy="50"  r="3.5" fill-opacity="0.2"/>
    <circle cx="238" cy="105" r="3.5" fill-opacity="0.18"/>
    <circle cx="358" cy="105" r="3.5" fill-opacity="0.18"/>
    <circle cx="78"  cy="215" r="3.5" fill-opacity="0.17"/>
    <circle cx="298" cy="215" r="3.5" fill-opacity="0.16"/>
    <circle cx="118" cy="270" r="3.5" fill-opacity="0.16"/>
    <circle cx="118" cy="325" r="3"   fill-opacity="0.14"/>
    <circle cx="210" cy="375" r="3"   fill-opacity="0.12"/>

    <!-- Small -->
    <circle cx="238" cy="50"  r="2" fill-opacity="0.2"/>
    <circle cx="315" cy="50"  r="2" fill-opacity="0.15"/>
    <circle cx="315" cy="105" r="2" fill-opacity="0.16"/>
    <circle cx="330" cy="270" r="2" fill-opacity="0.14"/>
    <circle cx="75"  cy="325" r="2" fill-opacity="0.13"/>
    <circle cx="220" cy="270" r="2" fill-opacity="0.13"/>
    <circle cx="220" cy="325" r="2" fill-opacity="0.11"/>
    <circle cx="330" cy="325" r="2" fill-opacity="0.11"/>
    <circle cx="75"  cy="375" r="2" fill-opacity="0.1"/>
  </g>

  <!-- Halos on primary nodes -->
  <circle cx="175" cy="160" r="12"  fill="none" stroke="#7F77DD" stroke-opacity="0.16" stroke-width="1"/>
  <circle cx="118" cy="105" r="10"  fill="none" stroke="#7F77DD" stroke-opacity="0.13" stroke-width="1"/>
  <circle cx="268" cy="160" r="10"  fill="none" stroke="#7F77DD" stroke-opacity="0.11" stroke-width="1"/>
  <circle cx="205" cy="215" r="9"   fill="none" stroke="#7F77DD" stroke-opacity="0.1"  stroke-width="1"/>

  <!-- IC chip block — centered -->
  <rect x="140" y="144" width="70" height="32" rx="4" fill="#7F77DD" fill-opacity="0.08" stroke="#7F77DD" stroke-opacity="0.24" stroke-width="1"/>
  <line x1="140" y1="151" x2="131" y2="151" stroke="#7F77DD" stroke-opacity="0.26" stroke-width="1"/>
  <line x1="140" y1="160" x2="131" y2="160" stroke="#7F77DD" stroke-opacity="0.26" stroke-width="1"/>
  <line x1="140" y1="169" x2="131" y2="169" stroke="#7F77DD" stroke-opacity="0.26" stroke-width="1"/>
  <line x1="210" y1="151" x2="219" y2="151" stroke="#7F77DD" stroke-opacity="0.26" stroke-width="1"/>
  <line x1="210" y1="160" x2="219" y2="160" stroke="#7F77DD" stroke-opacity="0.26" stroke-width="1"/>
  <line x1="210" y1="169" x2="219" y2="169" stroke="#7F77DD" stroke-opacity="0.26" stroke-width="1"/>

  <!-- Second smaller chip -->
  <rect x="83" y="93" width="50" height="24" rx="4" fill="#7F77DD" fill-opacity="0.06" stroke="#7F77DD" stroke-opacity="0.19" stroke-width="1"/>
  <line x1="83"  y1="100" x2="75"  y2="100" stroke="#7F77DD" stroke-opacity="0.22" stroke-width="1"/>
  <line x1="83"  y1="109" x2="75"  y2="109" stroke="#7F77DD" stroke-opacity="0.22" stroke-width="1"/>
  <line x1="133" y1="100" x2="141" y2="100" stroke="#7F77DD" stroke-opacity="0.22" stroke-width="1"/>
  <line x1="133" y1="109" x2="141" y2="109" stroke="#7F77DD" stroke-opacity="0.22" stroke-width="1"/>

  <!-- Third chip bottom area -->
  <rect x="160" y="258" width="58" height="24" rx="4" fill="#7F77DD" fill-opacity="0.06" stroke="#7F77DD" stroke-opacity="0.16" stroke-width="1"/>
  <line x1="160" y1="265" x2="152" y2="265" stroke="#7F77DD" stroke-opacity="0.18" stroke-width="1"/>
  <line x1="160" y1="274" x2="152" y2="274" stroke="#7F77DD" stroke-opacity="0.18" stroke-width="1"/>
  <line x1="218" y1="265" x2="226" y2="265" stroke="#7F77DD" stroke-opacity="0.18" stroke-width="1"/>
  <line x1="218" y1="274" x2="226" y2="274" stroke="#7F77DD" stroke-opacity="0.18" stroke-width="1"/>

  <!-- Corner brackets -->
  <path d="M370 20 L390 20 L390 40" fill="none" stroke="#7F77DD" stroke-opacity="0.4" stroke-width="1.5" stroke-linecap="round" stroke-linejoin="round"/>
  <path d="M10 380 L10 400 L30 400" fill="none" stroke="#7F77DD" stroke-opacity="0.25" stroke-width="1.5" stroke-linecap="round" stroke-linejoin="round"/>
</svg>
