<svg xmlns="http://www.w3.org/2000/svg" viewBox="0 0 1280 720" font-family="'Segoe UI', system-ui, sans-serif">
  <defs>
    <linearGradient id="bg" x1="0" y1="0" x2="1" y2="1"><stop offset="0" stop-color="#0a0e1a"/><stop offset="1" stop-color="#0d1326"/></linearGradient>
    <marker id="a" markerWidth="9" markerHeight="9" refX="7" refY="3" orient="auto" markerUnits="strokeWidth"><path d="M0,0 L7,3 L0,6 Z" fill="#64748b"/></marker>
    <marker id="aA" markerWidth="9" markerHeight="9" refX="7" refY="3" orient="auto" markerUnits="strokeWidth"><path d="M0,0 L7,3 L0,6 Z" fill="#34d399"/></marker>
    <marker id="aR" markerWidth="9" markerHeight="9" refX="7" refY="3" orient="auto" markerUnits="strokeWidth"><path d="M0,0 L7,3 L0,6 Z" fill="#f43f5e"/></marker>
  </defs>
  <rect width="1280" height="720" fill="url(#bg)"/>
  <text x="64" y="66" fill="#f1f5f9" font-size="32" font-weight="700">Sales order approval chain</text><text x="64" y="100" fill="#94a3b8" font-size="18">Credit-limit gating decides how far an order climbs before it confirms</text><rect x="87.5" y="300" width="185" height="80" rx="12" fill="#141a2e" stroke="#2a3350" stroke-width="1.6"/><text x="180" y="346" fill="#e2e8f0" font-size="16" font-weight="600" text-anchor="middle">Draft</text><line x1="272.5" y1="340" x2="314.5" y2="340" stroke="#475569" stroke-width="2"  marker-end="url(#a)"/><rect x="317.5" y="300" width="185" height="80" rx="12" fill="#141a2e" stroke="#34d399" stroke-width="1.6"/><text x="410" y="346" fill="#e2e8f0" font-size="16" font-weight="600" text-anchor="middle">Wait: Sales Mgr</text><line x1="502.5" y1="340" x2="544.5" y2="340" stroke="#475569" stroke-width="2"  marker-end="url(#a)"/><rect x="547.5" y="300" width="185" height="80" rx="12" fill="#141a2e" stroke="#34d399" stroke-width="1.6"/><text x="640" y="346" fill="#e2e8f0" font-size="16" font-weight="600" text-anchor="middle">Wait: Finance</text><line x1="732.5" y1="340" x2="774.5" y2="340" stroke="#475569" stroke-width="2"  marker-end="url(#a)"/><rect x="777.5" y="300" width="185" height="80" rx="12" fill="#141a2e" stroke="#34d399" stroke-width="1.6"/><text x="870" y="346" fill="#e2e8f0" font-size="16" font-weight="600" text-anchor="middle">Wait: Director</text><line x1="962.5" y1="340" x2="1004.5" y2="340" stroke="#475569" stroke-width="2"  marker-end="url(#a)"/><rect x="1007.5" y="300" width="185" height="80" rx="12" fill="#10261d" stroke="#34d399" stroke-width="1.6"/><text x="1100" y="337" fill="#e2e8f0" font-size="16" font-weight="600" text-anchor="middle">Confirmed</text><text x="1100" y="358" fill="#94a3b8" font-size="12.5" text-anchor="middle">sale</text><path d="M 180 300 C 180 205, 1100 205, 1100 300" fill="none" stroke="#34d399" stroke-width="2" stroke-dasharray="5 4" marker-end="url(#aA)"/><text x="640" y="195" fill="#34d399" font-size="13" text-anchor="middle">within credit limit → auto-confirm</text><rect x="490" y="455" width="220" height="64" rx="12" fill="#1a1320" stroke="#f43f5e" stroke-width="1.6"/><text x="600" y="484" fill="#e2e8f0" font-size="16" font-weight="600" text-anchor="middle">Cancel</text><text x="600" y="505" fill="#94a3b8" font-size="12.5" text-anchor="middle">rejected at any gate</text><path d="M 870 380 C 870 430, 640 430, 600 455" fill="none" stroke="#f43f5e" stroke-width="1.8" stroke-dasharray="5 4" marker-end="url(#aR)"/>
</svg>